<mxfile host="app.diagrams.net" modified="2023-11-08T15:40:44.544Z" agent="Mozilla/5.0 (Macintosh; Intel Mac OS X 10_15_7) AppleWebKit/537.36 (KHTML, like Gecko) Chrome/119.0.0.0 Safari/537.36" etag="Y4YCrWA1_YHU7i2gdJ17" version="22.0.8" type="github">
  <diagram name="Page-1" id="YvoRuMCAVRzCvK-HOVEK">
    <mxGraphModel dx="2603" dy="680" grid="1" gridSize="10" guides="1" tooltips="1" connect="1" arrows="1" fold="1" page="1" pageScale="1" pageWidth="1169" pageHeight="827" math="0" shadow="0">
      <root>
        <mxCell id="0" />
        <mxCell id="1" parent="0" />
        <mxCell id="o3cyliN7RNUKFfUNL9mk-2" value="p(1)" style="ellipse;whiteSpace=wrap;html=1;aspect=fixed;hachureGap=4;fontFamily=Architects Daughter;fontSource=https%3A%2F%2Ffonts.googleapis.com%2Fcss%3Ffamily%3DArchitects%2BDaughter;fontSize=20;rounded=0;sketch=1;curveFitting=1;jiggle=2;" vertex="1" parent="1">
          <mxGeometry x="-809" y="120" width="80" height="80" as="geometry" />
        </mxCell>
        <mxCell id="o3cyliN7RNUKFfUNL9mk-3" value="Trust Boundary s(2)" style="html=1;fontColor=#FF3333;fontStyle=1;align=left;verticalAlign=top;spacing=0;labelBorderColor=none;fillColor=none;dashed=1;strokeWidth=2;strokeColor=#FF3333;spacingLeft=4;spacingTop=-3;hachureGap=4;fontFamily=Architects Daughter;fontSource=https%3A%2F%2Ffonts.googleapis.com%2Fcss%3Ffamily%3DArchitects%2BDaughter;fontSize=20;rounded=0;sketch=1;curveFitting=1;jiggle=2;" vertex="1" parent="1">
          <mxGeometry x="-489" y="84" width="240" height="240" as="geometry" />
        </mxCell>
        <mxCell id="o3cyliN7RNUKFfUNL9mk-4" value="" style="edgeStyle=orthogonalEdgeStyle;rounded=0;hachureGap=4;orthogonalLoop=1;jettySize=auto;html=1;fontFamily=Architects Daughter;fontSource=https%3A%2F%2Ffonts.googleapis.com%2Fcss%3Ffamily%3DArchitects%2BDaughter;fontSize=16;sketch=1;curveFitting=1;jiggle=2;" edge="1" parent="1" source="o3cyliN7RNUKFfUNL9mk-5" target="o3cyliN7RNUKFfUNL9mk-7">
          <mxGeometry relative="1" as="geometry" />
        </mxCell>
        <mxCell id="o3cyliN7RNUKFfUNL9mk-5" value="p(2)" style="ellipse;whiteSpace=wrap;html=1;aspect=fixed;hachureGap=4;fontFamily=Architects Daughter;fontSource=https%3A%2F%2Ffonts.googleapis.com%2Fcss%3Ffamily%3DArchitects%2BDaughter;fontSize=20;rounded=0;sketch=1;curveFitting=1;jiggle=2;" vertex="1" parent="1">
          <mxGeometry x="-409" y="120" width="80" height="80" as="geometry" />
        </mxCell>
        <mxCell id="o3cyliN7RNUKFfUNL9mk-7" value="S(1)" style="shape=partialRectangle;whiteSpace=wrap;html=1;left=0;right=0;fillColor=none;hachureGap=4;fontFamily=Architects Daughter;fontSource=https%3A%2F%2Ffonts.googleapis.com%2Fcss%3Ffamily%3DArchitects%2BDaughter;fontSize=20;rounded=0;sketch=1;curveFitting=1;jiggle=2;" vertex="1" parent="1">
          <mxGeometry x="-429" y="254" width="120" height="40" as="geometry" />
        </mxCell>
        <mxCell id="o3cyliN7RNUKFfUNL9mk-11" value="" style="endArrow=classic;html=1;fontColor=#FF3333;rounded=0;hachureGap=4;fontFamily=Architects Daughter;fontSource=https%3A%2F%2Ffonts.googleapis.com%2Fcss%3Ffamily%3DArchitects%2BDaughter;fontSize=16;sketch=1;curveFitting=1;jiggle=2;" edge="1" parent="1" target="o3cyliN7RNUKFfUNL9mk-5">
          <mxGeometry width="50" height="50" relative="1" as="geometry">
            <mxPoint x="-731" y="163" as="sourcePoint" />
            <mxPoint x="-500" y="168.6341463414634" as="targetPoint" />
          </mxGeometry>
        </mxCell>
        <mxCell id="o3cyliN7RNUKFfUNL9mk-12" value="f(1)" style="edgeLabel;html=1;align=center;verticalAlign=middle;resizable=0;points=[];fontSize=20;fontFamily=Architects Daughter;rounded=0;sketch=1;curveFitting=1;jiggle=2;" vertex="1" connectable="0" parent="o3cyliN7RNUKFfUNL9mk-11">
          <mxGeometry x="-0.0061" y="-1" relative="1" as="geometry">
            <mxPoint as="offset" />
          </mxGeometry>
        </mxCell>
        <mxCell id="o3cyliN7RNUKFfUNL9mk-16" value="Internet Trust Boundary" style="shape=requiredInterface;html=1;verticalLabelPosition=bottom;dashed=1;strokeColor=#FF3333;strokeWidth=2;fillColor=none;fontColor=#FF3333;align=center;verticalAlign=top;labelPosition=center;sketch=1;hachureGap=4;jiggle=2;curveFitting=1;fontFamily=Architects Daughter;fontSource=https%3A%2F%2Ffonts.googleapis.com%2Fcss%3Ffamily%3DArchitects%2BDaughter;fontSize=20;" vertex="1" parent="1">
          <mxGeometry x="-640" y="10" width="20" height="330" as="geometry" />
        </mxCell>
      </root>
    </mxGraphModel>
  </diagram>
</mxfile>
